<?xml version="1.0" encoding="utf-8"?>
<!-- Generator: Adobe Illustrator 27.5.0, SVG Export Plug-In . SVG Version: 6.00 Build 0)  -->
<svg version="1.1" xmlns="http://www.w3.org/2000/svg" xmlns:xlink="http://www.w3.org/1999/xlink" x="0px" y="0px"
	 viewBox="0 0 500 500" style="enable-background:new 0 0 500 500;" xml:space="preserve">
<g id="BACKGROUND">
	<rect style="fill:#FFFFFF;" width="500" height="500"/>
</g>
<g id="OBJECTS">
	<g>
		<g>
			<path style="fill:#FF372D;" d="M190.773,247.678c-0.419-5.25,2.684-10.113,6.085-14.135c5.691-6.73,20.447-16.36,28.146-20.65
				v-11.027c-7.699,4.29-22.455,13.92-28.146,20.65c-3.402,4.022-6.504,8.884-6.085,14.135"/>
			<g>
				<g>
					<path style="fill:#2E2D33;" d="M192.111,279.594L192.111,279.594l-45.064-67.83l0,0c4.969-3.301,26.926,21.013,39.18,39.454
						l8.904,13.404C198.431,269.59,197.08,276.294,192.111,279.594z"/>
					<path style="fill:#FF372D;" d="M182.65,303.365l12.357,18.598c3.301,4.97,10.006,6.32,14.973,3.019
						c4.969-3.301,6.32-10.004,3.019-14.972l-18.334-27.595l-8.994,5.977C180.701,291.692,179.349,298.397,182.65,303.365z
						 M189.656,307.615c-2.063-3.106-1.219-7.296,1.887-9.359c3.105-2.062,7.295-1.219,9.359,1.889l7.723,11.623
						c2.063,3.105,1.219,7.295-1.889,9.358c-3.104,2.064-7.295,1.219-9.357-1.888L189.656,307.615z"/>
					
						<path style="fill:none;stroke:#BF2828;stroke-width:1.5;stroke-linecap:round;stroke-linejoin:round;stroke-miterlimit:10;" d="
						M195.007,321.963c3.301,4.97,10.006,6.32,14.973,3.019c4.969-3.301,6.32-10.004,3.019-14.972 M206.736,321.126
						c-3.104,2.064-7.295,1.219-9.357-1.888l-7.723-11.623c-2.063-3.106-1.219-7.296,1.887-9.359"/>
					<path style="fill:#2E2D33;" d="M194.806,282.675l-10.129-15.572l0,0c-2.027,1.347-2.762,3.971-1.732,6.175l6.164,13.183
						L194.806,282.675z"/>
					<g>
						<path style="fill:#2E2D33;" d="M195.931,276.889L195.931,276.889l-69.826-41.91l0,0c-3.07,5.115,22.225,25.936,41.207,37.33
							l13.799,8.281C186.224,283.66,192.861,282.002,195.931,276.889z"/>
						<path style="fill:#FF372D;" d="M203.771,269.16l-5.559,9.26l28.406,17.052c5.115,3.069,11.75,1.411,14.82-3.704
							c3.07-5.113,1.412-11.749-3.703-14.818l-19.145-11.492C213.476,262.39,206.841,264.046,203.771,269.16z M234.58,279.777
							c3.197,1.92,4.232,6.066,2.314,9.263c-1.92,3.197-6.066,4.232-9.264,2.313l-11.965-7.182
							c-3.197-1.918-4.232-6.065-2.314-9.263c1.918-3.196,6.064-4.232,9.264-2.314L234.58,279.777z"/>
						
							<path style="fill:none;stroke:#BF2828;stroke-width:1.5;stroke-linecap:round;stroke-linejoin:round;stroke-miterlimit:10;" d="
							M226.619,295.472c5.115,3.069,11.75,1.411,14.82-3.704c3.07-5.113,1.412-11.749-3.703-14.818 M213.351,274.909
							c1.918-3.196,6.064-4.232,9.264-2.314l11.965,7.182c3.197,1.92,4.232,6.066,2.314,9.263"/>
						<path style="fill:#2E2D33;" d="M198.648,278.769l-16.02-9.405l0,0c1.254-2.085,3.84-2.941,6.09-2.014l13.451,5.555
							L198.648,278.769z"/>
					</g>
					
						<path style="fill:none;stroke:#26252B;stroke-width:1.5;stroke-linecap:round;stroke-linejoin:round;stroke-miterlimit:10;" d="
						M167.312,272.309l13.799,8.281c5.113,3.07,11.75,1.412,14.82-3.701l0,0"/>
					
						<path style="fill:none;stroke:#26252B;stroke-width:1.5;stroke-linecap:round;stroke-linejoin:round;stroke-miterlimit:10;" d="
						M182.628,269.363L182.628,269.363c1.254-2.085,3.84-2.941,6.09-2.014l13.451,5.555"/>
					<path style="fill:#FFFFFF;" d="M188.488,275.491c-0.846,1.407-2.668,1.862-4.076,1.019c-1.406-0.843-1.863-2.668-1.018-4.074
						c0.844-1.408,2.668-1.863,4.074-1.02C188.876,272.261,189.331,274.087,188.488,275.491z"/>
					<path style="fill:none;stroke:#26252B;stroke-width:1.5;stroke-linecap:round;stroke-miterlimit:10;" d="M188.488,275.491
						c-0.846,1.407-2.668,1.862-4.076,1.019c-1.406-0.843-1.863-2.668-1.018-4.074c0.844-1.408,2.668-1.863,4.074-1.02
						C188.876,272.261,189.331,274.087,188.488,275.491z"/>
				</g>
				<g>
					<path style="fill:#2E2D33;" d="M307.889,279.594L307.889,279.594l45.064-67.83l0,0c-4.969-3.301-26.926,21.013-39.18,39.454
						l-8.904,13.404C301.568,269.59,302.92,276.294,307.889,279.594z"/>
					<path style="fill:#FF372D;" d="M314.328,288.392l-8.994-5.977L287,310.01c-3.301,4.968-1.949,11.671,3.019,14.972
						c4.967,3.302,11.672,1.951,14.973-3.019l12.357-18.598C320.65,298.397,319.299,291.692,314.328,288.392z M302.621,319.238
						c-2.063,3.106-6.254,3.951-9.357,1.888c-3.107-2.064-3.951-6.253-1.889-9.358l7.723-11.623c2.064-3.107,6.254-3.95,9.359-1.889
						c3.105,2.063,3.949,6.253,1.887,9.359L302.621,319.238z"/>
					
						<path style="fill:none;stroke:#BF2828;stroke-width:1.5;stroke-linecap:round;stroke-linejoin:round;stroke-miterlimit:10;" d="
						M287,310.01c-3.301,4.968-1.949,11.671,3.019,14.972c4.967,3.302,11.672,1.951,14.973-3.019 M308.457,298.256
						c3.105,2.063,3.949,6.253,1.887,9.359l-7.723,11.623c-2.063,3.106-6.254,3.951-9.357,1.888"/>
					<path style="fill:#2E2D33;" d="M305.193,282.675l10.129-15.572l0,0c2.027,1.347,2.762,3.971,1.732,6.175l-6.164,13.183
						L305.193,282.675z"/>
					<g>
						<path style="fill:#2E2D33;" d="M304.068,276.889L304.068,276.889l69.826-41.91l0,0c3.07,5.115-22.225,25.936-41.207,37.33
							l-13.799,8.281C313.775,283.66,307.139,282.002,304.068,276.889z"/>
						<path style="fill:#FF372D;" d="M281.408,265.457l-19.145,11.492c-5.115,3.069-6.773,9.705-3.703,14.818
							c3.07,5.115,9.705,6.773,14.82,3.704l28.406-17.052l-5.559-9.26C293.158,264.046,286.523,262.39,281.408,265.457z
							 M277.385,272.596c3.199-1.918,7.346-0.883,9.264,2.314c1.918,3.197,0.883,7.345-2.314,9.263l-11.965,7.182
							c-3.197,1.919-7.344,0.884-9.264-2.313c-1.918-3.196-0.883-7.343,2.314-9.263L277.385,272.596z"/>
						
							<path style="fill:none;stroke:#BF2828;stroke-width:1.5;stroke-linecap:round;stroke-linejoin:round;stroke-miterlimit:10;" d="
							M262.264,276.949c-5.115,3.069-6.773,9.705-3.703,14.818c3.07,5.115,9.705,6.773,14.82,3.704 M263.105,289.04
							c-1.918-3.196-0.883-7.343,2.314-9.263l11.965-7.182c3.199-1.918,7.346-0.883,9.264,2.314"/>
						<path style="fill:#2E2D33;" d="M301.352,278.769l16.02-9.405l0,0c-1.254-2.085-3.84-2.941-6.09-2.014l-13.451,5.555
							L301.352,278.769z"/>
					</g>
					
						<path style="fill:none;stroke:#26252B;stroke-width:1.5;stroke-linecap:round;stroke-linejoin:round;stroke-miterlimit:10;" d="
						M332.687,272.309l-13.799,8.281c-5.113,3.07-11.75,1.412-14.82-3.701l0,0"/>
					
						<path style="fill:none;stroke:#26252B;stroke-width:1.5;stroke-linecap:round;stroke-linejoin:round;stroke-miterlimit:10;" d="
						M317.371,269.363L317.371,269.363c-1.254-2.085-3.84-2.941-6.09-2.014l-13.451,5.555"/>
					<path style="fill:#FFFFFF;" d="M311.512,275.491c0.846,1.407,2.668,1.862,4.076,1.019c1.406-0.843,1.863-2.668,1.018-4.074
						c-0.844-1.408-2.668-1.863-4.074-1.02C311.123,272.261,310.668,274.087,311.512,275.491z"/>
					<path style="fill:none;stroke:#26252B;stroke-width:1.5;stroke-linecap:round;stroke-miterlimit:10;" d="M311.512,275.491
						c0.846,1.407,2.668,1.862,4.076,1.019c1.406-0.843,1.863-2.668,1.018-4.074c-0.844-1.408-2.668-1.863-4.074-1.02
						C311.123,272.261,310.668,274.087,311.512,275.491z"/>
				</g>
			</g>
			<g>
				<g id="XMLID_13_">
					<path id="XMLID_18_" style="fill:#8BB939;" d="M343.592,311.391l-15.945,1.588l3.544-15.627
						c1.23-5.43,4.138-10.336,8.311-14.025l0,0c4.068-3.593,9.142-5.853,14.532-6.472l16.684-1.924l-3.968,16.317
						c-1.282,5.273-4.15,10.025-8.219,13.617l-0.002,0.005C354.355,308.555,349.131,310.837,343.592,311.391z"/>
					<g id="XMLID_14_">
						
							<line id="XMLID_17_" style="fill:none;stroke:#628727;stroke-width:1.5;stroke-linecap:round;stroke-linejoin:round;stroke-miterlimit:10;" x1="365.151" y1="280.034" x2="327.739" y2="313.084"/>
						
							<polyline id="XMLID_16_" style="fill:none;stroke:#628727;stroke-width:1.5;stroke-linecap:round;stroke-linejoin:round;stroke-miterlimit:10;" points="
							352.026,283.361 350.605,293.011 360.457,292.902 						"/>
						
							<polyline id="XMLID_15_" style="fill:none;stroke:#628727;stroke-width:1.5;stroke-linecap:round;stroke-linejoin:round;stroke-miterlimit:10;" points="
							341.403,288.264 339.259,302.86 354.15,302.694 						"/>
					</g>
				</g>
				<g id="XMLID_28_">
					<path id="XMLID_33_" style="fill:#8BB939;" d="M156.408,311.391l15.945,1.588l-3.544-15.627
						c-1.23-5.43-4.138-10.336-8.311-14.025l0,0c-4.068-3.593-9.142-5.853-14.532-6.472l-16.684-1.924l3.968,16.317
						c1.282,5.273,4.15,10.025,8.219,13.617l0.002,0.005C145.644,308.555,150.869,310.837,156.408,311.391z"/>
					<g id="XMLID_29_">
						
							<line id="XMLID_32_" style="fill:none;stroke:#628727;stroke-width:1.5;stroke-linecap:round;stroke-linejoin:round;stroke-miterlimit:10;" x1="134.849" y1="280.034" x2="172.261" y2="313.084"/>
						
							<polyline id="XMLID_31_" style="fill:none;stroke:#628727;stroke-width:1.5;stroke-linecap:round;stroke-linejoin:round;stroke-miterlimit:10;" points="
							147.974,283.361 149.394,293.011 139.543,292.902 						"/>
						
							<polyline id="XMLID_30_" style="fill:none;stroke:#628727;stroke-width:1.5;stroke-linecap:round;stroke-linejoin:round;stroke-miterlimit:10;" points="
							158.597,288.264 160.741,302.86 145.85,302.694 						"/>
					</g>
				</g>
			</g>
			<g>
				<g>
					<g>
						<path style="fill:#FF372D;" d="M305.002,227.508c0.291-7.558-5.039-14.048-10.233-19.545
							c-6.715-7.107-13.793-13.98-22.01-19.282c-11.344-7.321-24.42-11.382-37.205-15.722c-6.449-2.188-13.116-4.624-17.839-9.529
							c-4.918-5.106-7.104-12.314-7.697-19.378c-0.309-3.681-0.216-7.478,1.07-10.94l-1.07-0.086
							c0.594,7.064,2.779,14.272,7.697,19.377c4.724,4.906,11.391,7.341,17.839,9.53c12.785,4.339,25.861,8.401,37.205,15.722
							c8.217,5.302,15.26,12.208,22.01,19.282c4.471,4.685,10.385,11.834,10.233,19.545"/>
					</g>
					<g>
						<path style="fill:#FF372D;" d="M210.018,133.026c-0.309-3.681-0.216-7.477,1.07-10.941c1.479-3.979,4.443-7.256,7.788-9.871
							c8.943-6.994,20.578-9.668,31.916-10.247c11.749-0.6,24.196,1.086,33.598,8.157v11.027c-9.402-7.071-21.85-8.756-33.598-8.158
							c-11.338,0.58-22.973,3.253-31.916,10.247c-3.345,2.615-6.31,5.892-7.788,9.872c-1.287,3.463-1.379,7.259-1.07,10.94V133.026z
							"/>
					</g>
				</g>
			</g>
			<g>
				<path style="fill:#E4B446;" d="M262.846,138.903c0,0-4.984,19.553,7.283,22.237c12.27,2.684,34.604,1.533,27.846,21.854
					c-6.758,20.321-28.135,62.027-18.596,77.02c9.537,14.996,15.58,26.882,16.199,43.367c0.623,16.487,7.523,32.974-8.963,32.974
					c-16.486,0-47.158,0-47.158,0h21.083c0,0-30.67,0-47.157,0c-16.485,0-9.584-16.486-8.963-32.974
					c0.621-16.485,6.663-28.371,16.201-43.367c9.537-14.993-11.838-56.699-18.596-77.02c-6.759-20.32,15.577-19.169,27.845-21.854
					c12.269-2.684,7.285-22.237,7.285-22.237H262.846z"/>
				<g>
					
						<line style="fill:none;stroke:#E29447;stroke-width:1.5;stroke-linecap:round;stroke-linejoin:round;stroke-miterlimit:10;stroke-dasharray:5,7;" x1="250.274" y1="335.318" x2="250.274" y2="138.903"/>
					
						<path style="fill:none;stroke:#E29447;stroke-width:1.5;stroke-linecap:round;stroke-linejoin:round;stroke-miterlimit:10;stroke-dasharray:5,7;" d="
						M220.503,163.189c0,0,3.382,28.622,10.501,54.399c7.116,25.776,10.89,35.83,1.414,55.2
						c-11.915,24.357-8.937,62.531-8.937,62.531"/>
					
						<path style="fill:none;stroke:#E29447;stroke-width:1.5;stroke-linecap:round;stroke-linejoin:round;stroke-miterlimit:10;stroke-dasharray:5,7;" d="
						M280.658,163.189c0,0-3.383,28.622-10.502,54.399c-7.117,25.776-10.891,35.83-1.414,55.2
						c11.916,24.357,8.935,62.531,8.935,62.531"/>
					
						<path style="fill:none;stroke:#E29447;stroke-width:1.9094;stroke-linecap:round;stroke-linejoin:round;stroke-miterlimit:10;stroke-dasharray:5,7;" d="
						M223.016,247.706c0,0,12.979,3.619,27.249,3.619c14.269,0,26.709-2.535,26.709-2.535"/>
				</g>
			</g>
			<path style="fill:#FF372D;" d="M305.002,227.508c-0.34,8.821-8.154,15.377-15.758,19.86
				c-22.84,13.458-50.183,19.112-76.486,15.815c-4.831-0.607-9.736-1.543-13.946-3.991c-4.208-2.448-7.651-6.661-8.039-11.515
				v-11.026c0.387,4.854,3.831,9.067,8.039,11.515c4.21,2.447,9.115,3.385,13.946,3.99c26.304,3.298,53.647-2.356,76.486-15.815
				c7.604-4.482,15.418-11.039,15.758-19.859V227.508z"/>
			<g>
				<g>
					<polygon style="fill:#2E2D33;" points="173.236,188.175 179.306,190.254 173.236,192.334 171.289,198.812 169.341,192.334 
						163.271,190.254 169.341,188.175 171.289,181.699 					"/>
					<polygon style="fill:#2E2D33;" points="312.394,150.835 319.052,153.115 312.394,155.396 310.259,162.502 308.12,155.396 
						301.462,153.115 308.12,150.835 310.259,143.728 					"/>
					<path style="fill:#2E2D33;" d="M161.61,142.27c0,1.104-0.896,2-2,2c-1.105,0-2-0.896-2-2c0-1.105,0.896-1.999,2-1.999
						C160.714,140.271,161.61,141.165,161.61,142.27z"/>
					<path style="fill:#2E2D33;" d="M321.892,207.933c0,1.104-0.896,1.999-2,1.999c-1.103,0-2-0.896-2-1.999
						c0-1.105,0.897-1.999,2-1.999C320.995,205.934,321.892,206.829,321.892,207.933z"/>
					<polygon style="fill:#2E2D33;" points="274.929,137.513 277.936,138.544 274.929,139.574 273.964,142.784 272.997,139.574 
						269.991,138.544 272.997,137.513 273.964,134.303 					"/>
					<polygon style="fill:#2E2D33;" points="334.335,178.939 342.39,181.699 334.335,184.458 331.748,193.055 329.163,184.458 
						321.108,181.699 329.163,178.939 331.748,170.344 					"/>
					<path style="fill:#2E2D33;" d="M229.627,128.376c0,1.105-0.895,2.001-2,2.001c-1.105,0-2-0.896-2-2.001
						c0-1.104,0.895-1.999,2-1.999C228.732,126.377,229.627,127.272,229.627,128.376z"/>
					<polygon style="fill:#2E2D33;" points="188.617,157.455 192.684,158.849 188.617,160.241 187.312,164.583 186.006,160.241 
						181.94,158.849 186.006,157.455 187.312,153.115 					"/>
				</g>
			</g>
			<path style="fill:none;stroke:#BF2828;stroke-width:1.5;stroke-linecap:round;stroke-linejoin:round;stroke-miterlimit:10;" d="
				M304.126,210.933c0,0,6.592,13.187-15.184,25.585"/>
			<path style="fill:none;stroke:#BF2828;stroke-width:1.5;stroke-linecap:round;stroke-linejoin:round;stroke-miterlimit:10;" d="
				M210.212,136.479c0,0,1.149-11.444,16.719-18.128"/>
			<path style="fill:none;stroke:#BF2828;stroke-width:1.5;stroke-linecap:round;stroke-linejoin:round;stroke-miterlimit:10;" d="
				M190.773,236.651c0,0,0,10.349,14.397,14.095"/>
		</g>
		<g>
			<g>
				<g>
					<g>
						<path style="fill:#60382F;" d="M363.242,366.413H136.757c-12.635,0-22.876-10.241-22.876-22.876l0,0
							c0-12.635,10.242-22.877,22.876-22.877h226.485c12.635,0,22.877,10.242,22.877,22.877l0,0
							C386.119,356.172,375.877,366.413,363.242,366.413z"/>
					</g>
					<g>
						<rect x="131.177" y="309.457" style="fill:#60382F;" width="237.645" height="68.159"/>
					</g>
				</g>
			</g>
			<path style="fill:none;stroke:#4C2B25;stroke-width:1.5;stroke-linecap:round;stroke-linejoin:round;stroke-miterlimit:10;" d="
				M378.687,343.537c0-8.564-6.298-15.733-14.791-17.729v-9.532H136.103v9.532c-8.494,1.995-14.791,9.164-14.791,17.729
				c0,8.563,6.297,15.733,14.791,17.728v9.532h227.793v-9.532C372.39,359.271,378.687,352.101,378.687,343.537z"/>
		</g>
	</g>
</g>
<g id="TEXTS">
	<g>
		<text transform="matrix(1 0 0 1 137.8818 362.2002)" style="fill:#FFFFFF; font-family:'Anton-Regular'; font-size:42px;">FIX FASHION</text>
		
			<text transform="matrix(1 0 0 1 161.6665 396.0088)" style="fill:#7E8589; font-family:'RobotoCondensed-Regular'; font-size:15px;">Your Awesome Tagline Here</text>
	</g>
</g>
</svg>
